Patient4_TMGait_0pt6_01_right_03_GRF.mot
version=1
nRows=78
nColumns=19
inDegrees=no
endheader
time	F1x	F1y	F1z	M1x	M1y	M1z	F2x	F2y	F2z	M2x	M2y	M2z	EC1x	EC1y	EC1z	EC2x	EC2y	EC2z
3.01	-2.3282	760.938	46.8316	-261.932	-35.9422	641.9151	1.7823	2.0012	9.1366	-1.264	-7.4995	2.6421	-0.0592	0.0182	-0.0073	-0.0462	0.0165	0.9585
3.0219	-1.2864	760.3482	48.6258	-261.1855	-37.248	639.5548	1.1391	2.1768	6.1599	-0.53893	-4.9861	2.6688	-0.0592	0.0182	-0.0073	-0.0462	0.0165	0.9585
3.0337	0.080818	759.4383	50.1095	-260.38	-38.0611	636.2163	0.57999	2.3387	3.6306	0.091073	-2.8542	2.7107	-0.0592	0.0182	-0.0073	-0.0462	0.0165	0.9585
3.0456	1.6801	758.2945	51.2397	-259.5634	-38.3665	632.0796	0.14273	2.4896	1.6943	0.58978	-1.2251	2.7718	-0.0592	0.0182	-0.0073	-0.0462	0.0165	0.9585
3.0574	3.4133	756.9487	52.0097	-258.7447	-38.2042	627.318	-0.1572	2.6229	0.34905	0.95506	-0.098092	2.8303	-0.0592	0.0182	-0.0073	-0.0462	0.0165	0.9585
3.0693	5.1647	755.3108	52.5178	-257.8779	-37.7216	622.0264	-0.34901	2.733	-0.49956	1.2028	0.61402	2.8804	-0.0592	0.0182	-0.0073	-0.0462	0.0165	0.9585
3.0811	6.8682	753.1999	52.8297	-256.8875	-37.0204	616.1702	-0.46119	2.7982	-0.9634	1.3496	1.0092	2.8949	-0.0592	0.0182	-0.0073	-0.0462	0.0165	0.9585
3.093	8.5061	750.4226	53.0348	-255.6958	-36.2116	609.6886	-0.53593	2.7973	-1.1692	1.4092	1.2009	2.8521	-0.0592	0.0182	-0.0073	-0.0462	0.0165	0.9585
3.1049	10.1269	746.8652	53.1773	-254.2612	-35.3387	602.5324	-0.59167	2.6732	-1.2139	1.3784	1.2698	2.6931	-0.0592	0.0182	-0.0073	-0.0462	0.0165	0.9585
3.1167	11.813	742.5766	53.2954	-252.5988	-34.422	594.7653	-0.65716	2.3644	-1.1773	1.2438	1.2824	2.3734	-0.0592	0.0182	-0.0073	-0.0462	0.0165	0.9585
3.1286	13.6789	737.7991	53.3945	-250.7883	-33.4368	586.575	-0.73364	1.7815	-1.1122	0.97969	1.273	1.8058	-0.0592	0.0182	-0.0073	-0.0462	0.0165	0.9585
3.1404	15.8207	732.9645	53.4767	-248.9649	-32.3566	578.294	-0.82299	0.84068	-1.051	0.55522	1.2672	0.90742	-0.0592	0.0182	-0.0073	-0.0462	0.0165	0.9585
3.1523	18.2857	728.6015	53.568	-247.2908	-31.1818	570.3356	-0.90033	-0.53881	-1.0123	-0.060412	1.275	-0.40996	-0.0592	0.0182	-0.0073	-0.0462	0.0165	0.9585
3.1641	21.0747	725.2644	53.6923	-245.9273	-29.9224	563.1614	-0.9511	-2.3936	-0.98605	-0.88195	1.2785	-2.1788	-0.0592	0.0182	-0.0073	-0.0462	0.0165	0.9585
3.176	24.1142	723.3669	53.914	-244.9845	-28.6445	557.1386	-0.92449	-4.6727	-0.95287	-1.8857	1.2378	-4.3547	-0.0592	0.0182	-0.0073	-0.0462	0.0165	0.9585
3.1879	27.2801	723.0825	54.2604	-244.491	-27.4055	552.4659	-0.76808	-7.1622	-0.86809	-2.977	1.084	-6.7339	-0.0592	0.0182	-0.0073	-0.0462	0.0165	0.9585
3.1997	30.4094	724.225	54.7809	-244.3582	-26.3034	549.0867	-0.39918	-9.4131	-0.6819	-3.9567	0.7359	-8.8959	-0.0592	0.0182	-0.0073	-0.0462	0.0165	0.9585
3.2116	33.3213	726.2295	55.4652	-244.3782	-25.3948	546.6632	0.27246	-10.6328	-0.32326	-4.4789	0.089751	-10.0929	-0.0592	0.0182	-0.0073	-0.0462	0.0165	0.9585
3.2234	35.8561	728.2498	56.3069	-244.2598	-24.7423	544.6335	1.3496	-9.6274	0.26771	-4.0201	-0.94603	-9.198	-0.0592	0.0182	-0.0073	-0.0462	0.0165	0.9585
3.2353	37.9107	729.3442	57.2069	-243.6957	-24.321	542.3584	2.9072	-4.7413	1.1495	-1.8571	-2.4504	-4.6294	-0.0592	0.0182	-0.0073	-0.0462	0.0165	0.9585
3.2471	39.4439	728.6171	58.0512	-242.4123	-24.0823	539.2009	4.9656	6.0867	2.3379	2.909	-4.4355	5.5798	-0.0592	0.0182	-0.0073	-0.0462	0.0165	0.9585
3.259	40.5022	725.3191	58.6669	-240.197	-23.9076	534.6088	7.4144	25.1453	3.7959	11.2698	-6.8056	23.6195	-0.0592	0.0182	-0.0073	-0.0462	0.0165	0.9585
3.2709	41.19	718.7693	58.8928	-236.8714	-23.6683	528.0515	9.9069	54.5664	5.3622	24.1443	-9.2409	51.5228	-0.0592	0.0182	-0.0073	-0.0462	0.0165	0.9585
3.2827	41.657	708.3125	58.5407	-232.275	-23.1957	518.9804	11.6061	95.7556	6.7647	42.1231	-11.1081	90.6564	-0.0592	0.0182	-0.0073	-0.0462	0.0165	0.9585
3.2946	42.032	693.1539	57.4352	-226.2104	-22.3302	506.7339	11.0649	148.4252	7.5795	65.0481	-11.3771	140.7803	-0.0592	0.0182	-0.0073	-0.0462	0.0165	0.9585
3.3064	42.3827	672.3058	55.4018	-218.4191	-20.9242	490.5283	6.768	209.7513	7.2009	91.6394	-8.8428	199.2875	-0.0592	0.0182	-0.0073	-0.0462	0.0165	0.9585
3.3183	42.636	644.6217	52.3132	-208.5877	-18.9024	469.4905	-1.2535	274.2873	4.9161	119.4734	-2.8646	261.0142	-0.0592	0.0182	-0.0073	-0.0462	0.0165	0.9585
3.3301	42.5832	609.0326	48.1447	-196.4144	-16.3117	442.8469	-11.3748	335.397	0.32812	145.6543	6.1877	319.4713	-0.0592	0.0182	-0.0073	-0.0462	0.0165	0.9585
3.342	41.9082	564.9741	43.0157	-181.7323	-13.3293	410.2117	-21.7703	388.5138	-5.9847	168.2158	16.9046	370.0169	-0.0592	0.0182	-0.0073	-0.0462	0.0165	0.9585
3.3539	40.3074	512.7555	37.2116	-164.6251	-10.2369	371.8446	-31.0289	432.6061	-13.0915	186.7442	27.7464	411.4231	-0.0592	0.0182	-0.0073	-0.0462	0.0165	0.9585
3.3657	37.5829	453.6818	31.1596	-145.4731	-7.367	328.7162	-38.3509	469.3739	-20.0444	202.02	37.456	445.2209	-0.0592	0.0182	-0.0073	-0.0462	0.0165	0.9585
3.3776	33.6516	389.9629	25.2574	-124.9356	-4.9827	282.4277	-43.4592	501.7372	-26.1996	215.3462	45.3151	474.1914	-0.0592	0.0182	-0.0073	-0.0462	0.0165	0.9585
3.3894	28.5584	324.4318	19.8498	-103.8726	-3.278	234.9977	-46.4366	532.5975	-31.2187	227.9975	51.0603	501.1232	-0.0592	0.0182	-0.0073	-0.0462	0.0165	0.9585
3.4013	22.5369	260.2218	15.1542	-83.253	-2.3106	188.6491	-47.5705	564.0419	-35.211	240.8691	54.9509	528.0355	-0.0592	0.0182	-0.0073	-0.0462	0.0165	0.9585
3.4131	16.0065	200.3786	11.2993	-64.0349	-2.0297	145.5299	-47.342	597.1081	-38.5033	254.378	57.5244	555.9988	-0.0592	0.0182	-0.0073	-0.0462	0.0165	0.9585
3.425	9.5875	147.425	8.2636	-47.0262	-2.2179	107.3951	-46.2471	631.7165	-41.5981	268.4469	59.4929	585.0591	-0.0592	0.0182	-0.0073	-0.0462	0.0165	0.9585
3.4369	3.926	102.9172	5.9602	-32.7359	-2.6126	75.3216	-44.7688	666.758	-44.8564	282.5699	61.4132	614.3196	-0.0592	0.0182	-0.0073	-0.0462	0.0165	0.9585
3.4487	-0.49479	67.3404	4.2256	-21.3322	-2.9465	49.6376	-43.2914	700.4045	-48.4744	295.9581	63.644	642.2016	-0.0592	0.0182	-0.0073	-0.0462	0.0165	0.9585
3.4606	-3.4402	40.2998	2.9229	-12.691	-3.0594	30.0569	-42.069	730.6999	-52.3568	307.798	66.2166	666.9808	-0.0592	0.0182	-0.0073	-0.0462	0.0165	0.9585
3.4724	-4.8938	20.8737	1.9267	-6.5117	-2.8726	15.9312	-41.1492	756.0387	-56.1783	317.4586	68.8678	687.2163	-0.0592	0.0182	-0.0073	-0.0462	0.0165	0.9585
3.4843	-5.0735	7.895	1.1534	-2.4097	-2.4121	6.4313	-40.4204	775.3517	-59.5239	324.5565	71.1747	701.9364	-0.0592	0.0182	-0.0073	-0.0462	0.0165	0.9585
3.4961	-4.4469	0.1113	0.588	0.028674	-1.83	0.67352	-39.7068	788.0381	-62.0514	328.9126	72.7496	710.5945	-0.0592	0.0182	-0.0073	-0.0462	0.0165	0.9585
3.508	-3.477	-3.7908	0.21868	1.2329	-1.2718	-2.2603	-38.8382	793.9249	-63.6033	330.5189	73.377	713.0474	-0.0592	0.0182	-0.0073	-0.0462	0.0165	0.9585
3.5199	-2.457	-5.0644	0.010932	1.6074	-0.81386	-3.2747	-37.6978	793.3379	-64.1499	329.5597	72.9821	709.611	-0.0592	0.0182	-0.0073	-0.0462	0.0165	0.9585
3.5317	-1.5617	-4.7462	-0.083234	1.4838	-0.47893	-3.1177	-36.2402	787.1484	-63.7824	326.4295	71.6369	701.0853	-0.0592	0.0182	-0.0073	-0.0462	0.0165	0.9585
3.5436	-0.84989	-3.6192	-0.096722	1.1098	-0.26367	-2.3655	-34.4747	776.7028	-62.6222	321.705	69.4645	688.6867	-0.0592	0.0182	-0.0073	-0.0462	0.0165	0.9585
3.5554	-0.33498	-2.2271	-0.073309	0.65646	-0.13443	-1.4038	-32.4314	763.6791	-60.8508	316.0844	66.6513	673.9101	-0.0592	0.0182	-0.0073	-0.0462	0.0165	0.9585
3.5673	0.012981	-0.8975	-0.025056	0.22316	-0.072462	-0.47214	-30.164	749.8573	-58.6616	310.299	63.3933	658.3089	-0.0592	0.0182	-0.0073	-0.0462	0.0165	0.9585
3.5791	0.22109	0.21301	0.024405	-0.14224	-0.050077	0.32441	-27.7356	736.9056	-56.2876	305.0239	59.9214	643.3175	-0.0592	0.0182	-0.0073	-0.0462	0.0165	0.9585
3.591	0.32311	1.0642	0.079279	-0.42502	-0.062172	0.95039	-25.1758	726.1746	-53.9326	300.7987	56.4262	630.0693	-0.0592	0.0182	-0.0073	-0.0462	0.0165	0.9585
3.6029	0.34888	1.6839	0.12112	-0.63196	-0.084082	1.4296	-22.4732	718.5912	-51.7524	297.9869	53.0381	619.3086	-0.0592	0.0182	-0.0073	-0.0462	0.0165	0.9585
3.6147	0.32389	2.1089	0.15464	-0.77451	-0.11272	1.7807	-19.5895	714.6582	-49.8447	296.7763	49.8201	611.4018	-0.0592	0.0182	-0.0073	-0.0462	0.0165	0.9585
3.6266	0.26421	2.3974	0.17052	-0.87091	-0.13607	2.0428	-16.4889	714.443	-48.2705	297.1768	46.7961	606.3589	-0.0592	0.0182	-0.0073	-0.0462	0.0165	0.9585
3.6384	0.18305	2.5844	0.17502	-0.93151	-0.1546	2.2324	-13.1677	717.5913	-47.0733	299.0233	43.9844	603.8601	-0.0592	0.0182	-0.0073	-0.0462	0.0165	0.9585
3.6503	0.088813	2.6907	0.16994	-0.96096	-0.17035	2.361	-9.6521	723.38	-46.2773	301.9941	41.4037	603.2985	-0.0592	0.0182	-0.0073	-0.0462	0.0165	0.9585
3.6621	-0.021793	2.7023	0.17008	-0.95477	-0.20034	2.4093	-6.0137	730.8225	-45.8847	305.6592	39.0793	603.8892	-0.0592	0.0182	-0.0073	-0.0462	0.0165	0.9585
3.674	-0.14838	2.588	0.1784	-0.90263	-0.25249	2.3489	-2.3546	738.8416	-45.8509	309.5529	37.0146	604.8138	-0.0592	0.0182	-0.0073	-0.0462	0.0165	0.9585
3.6859	-0.30105	2.2915	0.20536	-0.78509	-0.33968	2.1191	1.1961	746.4367	-46.1204	313.239	35.2197	605.3462	-0.0592	0.0182	-0.0073	-0.0462	0.0165	0.9585
3.6977	-0.47296	1.7354	0.24848	-0.57636	-0.45807	1.637	4.4974	752.8136	-46.6058	316.3676	33.687	604.9498	-0.0592	0.0182	-0.0073	-0.0462	0.0165	0.9585
3.7096	-0.65183	0.83812	0.30907	-0.24904	-0.59959	0.82352	7.4374	757.4601	-47.2345	318.7069	32.4162	603.3198	-0.0592	0.0182	-0.0073	-0.0462	0.0165	0.9585
3.7214	-0.79794	-0.45817	0.37239	0.2159	-0.73632	-0.38082	9.9566	760.1631	-47.9334	320.1512	31.381	600.3797	-0.0592	0.0182	-0.0073	-0.0462	0.0165	0.9585
3.7333	-0.85636	-2.1744	0.41737	0.82519	-0.82129	-1.9968	12.0655	760.9467	-48.65	320.6958	30.5401	596.2237	-0.0592	0.0182	-0.0073	-0.0462	0.0165	0.9585
3.7451	-0.72125	-4.2321	0.40736	1.5521	-0.77947	-3.9518	13.8292	759.9628	-49.3605	320.3885	29.8503	591.0325	-0.0592	0.0182	-0.0073	-0.0462	0.0165	0.9585
3.757	-0.27598	-6.4129	0.30218	2.3178	-0.52388	-6.0358	15.3489	757.3962	-50.0558	319.2933	29.2634	584.9853	-0.0592	0.0182	-0.0073	-0.0462	0.0165	0.9585
3.7689	0.6341	-8.2506	0.043821	2.9519	0.057156	-7.8241	16.762	753.4189	-50.7536	317.4699	28.7389	578.2236	-0.0592	0.0182	-0.0073	-0.0462	0.0165	0.9585
3.7807	2.1462	-8.9783	-0.42137	3.1741	1.0658	-8.5932	18.2207	748.1725	-51.4815	314.9679	28.2385	570.8435	-0.0592	0.0182	-0.0073	-0.0462	0.0165	0.9585
3.7926	4.386	-7.4613	-1.1484	2.5713	2.5948	-7.2677	19.8503	741.7552	-52.2574	311.8261	27.721	562.8865	-0.0592	0.0182	-0.0073	-0.0462	0.0165	0.9585
3.8044	7.3843	-2.176	-2.1578	0.59416	4.6733	-2.3819	21.7603	734.2169	-53.081	308.075	27.1475	554.3397	-0.0592	0.0182	-0.0073	-0.0462	0.0165	0.9585
3.8163	11.0256	8.7114	-3.4413	-3.4183	7.24	7.8311	23.998	725.547	-53.8992	303.731	26.472	545.1564	-0.0592	0.0182	-0.0073	-0.0462	0.0165	0.9585
3.8281	14.8988	27.1521	-4.8778	-10.164	10.0204	25.2601	26.5503	715.5911	-54.6128	298.7633	25.6479	535.1949	-0.0592	0.0182	-0.0073	-0.0462	0.0165	0.9585
3.84	18.1987	54.7963	-6.2216	-20.228	12.4742	51.5062	29.3227	703.9924	-55.0545	293.0651	24.6026	524.2029	-0.0592	0.0182	-0.0073	-0.0462	0.0165	0.9585
3.8519	19.5735	92.4166	-7.0478	-33.874	13.7017	87.3686	32.1709	690.1109	-55.0293	286.4222	23.2648	511.7321	-0.0592	0.0182	-0.0073	-0.0462	0.0165	0.9585
3.8637	17.6236	139.6777	-6.9144	-50.9575	12.7754	132.6101	34.8994	673.0809	-54.3343	278.5276	21.5747	497.1786	-0.0592	0.0182	-0.0073	-0.0462	0.0165	0.9585
3.8756	12.06	195.3862	-5.3884	-71.0054	9.1787	186.1554	37.3173	651.9323	-52.7963	269.029	19.4929	479.8653	-0.0592	0.0182	-0.0073	-0.0462	0.0165	0.9585
3.8874	3.7104	256.9528	-2.1366	-93.0214	2.8931	245.4897	39.2495	625.7091	-50.3289	257.5712	17.0348	459.1233	-0.0592	0.0182	-0.0073	-0.0462	0.0165	0.9585
3.8993	-6.2051	319.2489	3.2653	-115.1209	-6.0175	305.5086	40.5473	593.5631	-46.9471	243.8336	14.2745	434.3444	-0.0592	0.0182	-0.0073	-0.0462	0.0165	0.9585
3.9111	-16.1417	376.6689	10.5384	-135.3247	-16.6772	360.543	41.0726	554.9696	-42.7836	227.6136	11.3622	405.1401	-0.0592	0.0182	-0.0073	-0.0462	0.0165	0.9585
3.923	-24.802	426.2349	18.4705	-152.648	-27.4188	407.4869	40.684	510.0349	-38.0416	208.945	8.481	371.5891	-0.0592	0.0182	-0.0073	-0.0462	0.0165	0.9585
